<?xml version="1.0" encoding="utf-8"?>
<!-- Generator: Adobe Illustrator 19.2.0, SVG Export Plug-In . SVG Version: 6.00 Build 0)  -->
<svg version="1.1" id="Layer_1" xmlns="http://www.w3.org/2000/svg" xmlns:xlink="http://www.w3.org/1999/xlink" x="0px" y="0px"
	 viewBox="0 0 321 176.5" style="enable-background:new 0 0 321 176.5;" xml:space="preserve">
<path d="M84.2,176c-26.1,0-49-15.2-66.2-43.9C5.6,111.3,0.4,90.8,0.2,89.9c-1.1-4.3,1.6-8.6,5.9-9.7c4.3-1.1,8.6,1.6,9.7,5.9
	c0.2,1,18.9,73.9,68.4,73.9c46.6,0,59.6-37.5,68.2-72.7l0.3-1.2c2.9-12,8.4-34.3,20.8-52.6c15-22.2,36.2-33.5,63-33.5
	c25.2,0,47.9,15.2,65.4,43.8c12.7,20.7,18.3,41.2,18.5,42.1c1.2,4.3-1.4,8.7-5.6,9.8c-4.3,1.2-8.7-1.4-9.8-5.6
	c-0.2-0.7-20.7-74.1-68.5-74.1c-21.5,0-37.8,8.6-49.8,26.4c-10.8,16-15.6,35.7-18.5,47.5l-0.3,1.2C161.2,118.7,147.2,176,84.2,176z"
	/>
</svg>
