<?xml version="1.0" encoding="utf-8"?>
<!-- Generator: Adobe Illustrator 19.2.0, SVG Export Plug-In . SVG Version: 6.00 Build 0)  -->
<svg version="1.1" id="Layer_1" xmlns="http://www.w3.org/2000/svg" xmlns:xlink="http://www.w3.org/1999/xlink" x="0px" y="0px"
	 viewBox="0 0 321 176.5" style="enable-background:new 0 0 321 176.5;" xml:space="preserve">
<path d="M84.2,176.5C84.2,176.5,84.2,176.5,84.2,176.5c-2.2,0-4.3-1.1-5.8-2.7L2.2,93.6c-3-3.2-2.9-8.3,0.3-11.4
	c3.2-3,8.3-3,11.3,0.2l70.4,73.9l70.5-73.9l76.1-79.7c1.5-1.6,3.6-2.2,5.8-2.2c0,0,0,0,0,0c2.2,0,4.3,0.6,5.8,2.2l76.2,79.9
	c3,3.2,2.9,8.2-0.3,11.2c-3.2,3-8.3,2.9-11.3-0.3l-70.4-73.9l-70.3,73.9L90,173.8C88.5,175.4,86.4,176.5,84.2,176.5z"/>
</svg>
