<?xml version="1.0" encoding="utf-8"?>
<!-- Generator: Adobe Illustrator 19.2.0, SVG Export Plug-In . SVG Version: 6.00 Build 0)  -->
<svg version="1.1" id="Layer_1" xmlns="http://www.w3.org/2000/svg" xmlns:xlink="http://www.w3.org/1999/xlink" x="0px" y="0px"
	 viewBox="0 0 321 176.5" style="enable-background:new 0 0 321 176.5;" xml:space="preserve">
<path d="M8,176c-1.4,0-2.9-0.4-4.1-1.2c-2.4-1.4-3.9-4-3.9-6.8V88.5c0-4.4,3.6-8,8-8s8,3.6,8,8v66.3l140.9-73.9l152.4-80
	c2.5-1.3,5.5-1.2,7.9,0.2c2.4,1.4,3.9,4,3.9,6.8v80.5c0,4.4-3.6,8-8,8s-8-3.6-8-8V21.2L164.3,95.1l-152.6,80
	C10.6,175.7,9.3,176,8,176z"/>
</svg>
