<?xml version="1.0" encoding="utf-8"?>
<!-- Generator: Adobe Illustrator 19.2.0, SVG Export Plug-In . SVG Version: 6.00 Build 0)  -->
<svg version="1.1" id="Layer_1" xmlns="http://www.w3.org/2000/svg" xmlns:xlink="http://www.w3.org/1999/xlink" x="0px" y="0px"
	 viewBox="0 0 321 176.5" style="enable-background:new 0 0 321 176.5;" xml:space="preserve">
<path d="M160.4,176.5H8c-4.4,0-8-3.6-8-8v-80c0-4.4,3.6-8,8-8s8,3.6,8,8v72h136.4l0.1-72l-0.1-79.9c0-2.1,0.8-4.2,2.3-5.7
	c1.5-1.5,3.5-2.3,5.7-2.3H313c4.4,0,8,3.6,8,8v80c0,4.4-3.6,8-8,8s-8-3.6-8-8v-72H168.4l0.1,72l-0.1,80.1
	C168.4,172.9,164.8,176.5,160.4,176.5z"/>
</svg>
